{"accessors":[{"bufferView":0,"byteOffset":0,"componentType":5126,"count":72,"max":[0.433012723922729,1.0,0.5],"min":[-0.433012723922729,-1.0,-0.5],"normalized":false,"type":"VEC3"},{"bufferView":1,"byteOffset":0,"componentType":5126,"count":72,"max":[1.0,0.0,0.866026878356934,1.0],"min":[-1.0,-0.0000208445126190782,-0.866017997264862,1.0],"normalized":false,"type":"VEC4"},{"bufferView":2,"byteOffset":0,"componentType":5126,"count":72,"max":[0.866032183170319,1.0,1.0],"min":[-0.866055428981781,-1.0,-1.0],"normalized":false,"type":"VEC3"},{"bufferView":3,"byteOffset":0,"componentType":5126,"count":72,"max":[1.0,1.0],"min":[0.0,0.0],"normalized":false,"type":"VEC2"},{"bufferView":4,"byteOffset":0,"componentType":5123,"count":288,"max":[71.0],"min":[0.0],"normalized":false,"type":"SCALAR"},{"bufferView":5,"byteOffset":0,"componentType":5126,"count":216,"max":[0.43299999833107,1.0,0.5],"min":[-0.43299999833107,-1.0,-0.5],"normalized":false,"type":"VEC3"},{"bufferView":6,"byteOffset":0,"componentType":5123,"count":216,"max":[215.0],"min":[0.0],"normalized":false,"type":"SCALAR"},{"bufferView":7,"byteOffset":0,"componentType":5126,"count":49,"max":[0.476313948631287,0.021650642156601,0.549999952316284],"min":[-0.476313948631287,-0.021650642156601,-0.549999952316284],"normalized":false,"type":"VEC3"},{"bufferView":8,"byteOffset":0,"componentType":5126,"count":49,"max":[1.0,0.0,0.866026878356934,1.0],"min":[-1.0,-0.0000208445126190782,-0.866017997264862,1.0],"normalized":false,"type":"VEC4"},{"bufferView":9,"byteOffset":0,"componentType":5126,"count":49,"max":[0.866032183170319,0.866035997867584,1.0],"min":[-0.866055428981781,-0.866055428981781,-1.0],"normalized":false,"type":"VEC3"},{"bufferView":10,"byteOffset":0,"componentType":5126,"count":49,"max":[1.0,1.0],"min":[0.0,0.0],"normalized":false,"type":"VEC2"},{"bufferView":11,"byteOffset":0,"componentType":5123,"count":216,"max":[48.0],"min":[0.0],"normalized":false,"type":"SCALAR"},{"bufferView":12,"byteOffset":0,"componentType":5126,"count":1,"max":[0.0],"min":[0.0],"normalized":false,"type":"SCALAR"},{"bufferView":13,"byteOffset":0,"componentType":5126,"count":1,"max":[0.0,0.0,0.0],"min":[0.0,0.0,0.0],"normalized":false,"type":"VEC3"},{"bufferView":14,"byteOffset":0,"componentType":5126,"count":1,"max":[0.0],"min":[0.0],"normalized":false,"type":"SCALAR"},{"bufferView":15,"byteOffset":0,"componentType":5126,"count":1,"max":[0.0,0.0,0.0,1.0],"min":[0.0,0.0,0.0,1.0],"normalized":false,"type":"VEC4"},{"bufferView":16,"byteOffset":0,"componentType":5126,"count":1,"max":[0.0],"min":[0.0],"normalized":false,"type":"SCALAR"},{"bufferView":17,"byteOffset":0,"componentType":5126,"count":1,"max":[0.0,0.104120999574661,0.0],"min":[0.0,0.104120999574661,0.0],"normalized":false,"type":"VEC3"},{"bufferView":18,"byteOffset":0,"componentType":5126,"count":2,"max":[0.5],"min":[0.0],"normalized":false,"type":"SCALAR"},{"bufferView":19,"byteOffset":0,"componentType":5126,"count":2,"max":[0.0,0.0,0.0,1.0],"min":[0.0,0.0,-1.0,0.00000126759084650985],"normalized":false,"type":"VEC4"},{"bufferView":20,"byteOffset":0,"componentType":5126,"count":3,"max":[0.5],"min":[0.0],"normalized":false,"type":"SCALAR"},{"bufferView":21,"byteOffset":0,"componentType":5126,"count":3,"max":[0.0,0.0,0.0],"min":[-1.51699995994568,-0.800000011920929,0.0],"normalized":false,"type":"VEC3"},{"bufferView":22,"byteOffset":0,"componentType":5126,"count":2,"max":[0.5],"min":[0.0],"normalized":false,"type":"SCALAR"},{"bufferView":23,"byteOffset":0,"componentType":5126,"count":2,"max":[0.0,0.0,0.0,1.0],"min":[0.0,0.0,-1.0,0.00000126759084650985],"normalized":false,"type":"VEC4"},{"bufferView":24,"byteOffset":0,"componentType":5126,"count":3,"max":[0.5],"min":[0.0],"normalized":false,"type":"SCALAR"},{"bufferView":25,"byteOffset":0,"componentType":5126,"count":3,"max":[0.0,0.0,0.0],"min":[-1.51699995994568,-0.800000011920929,0.0],"normalized":false,"type":"VEC3"}],"animations":[{"channels":[{"sampler":0,"target":{"node":0,"path":"translation"}},{"sampler":1,"target":{"node":0,"path":"rotation"}},{"sampler":2,"target":{"node":1,"path":"translation"}}],"name":"RESET","samplers":[{"input":12,"interpolation":"LINEAR","output":13},{"input":14,"interpolation":"LINEAR","output":15},{"input":16,"interpolation":"LINEAR","output":17}]},{"channels":[{"sampler":0,"target":{"node":0,"path":"rotation"}},{"sampler":1,"target":{"node":1,"path":"translation"}}],"name":"blight","samplers":[{"input":18,"interpolation":"LINEAR","output":19},{"input":20,"interpolation":"LINEAR","output":21}]},{"channels":[{"sampler":0,"target":{"node":0,"path":"rotation"}},{"sampler":1,"target":{"node":1,"path":"translation"}}],"name":"unblight","samplers":[{"input":22,"interpolation":"LINEAR","output":23},{"input":24,"interpolation":"LINEAR","output":25}]}],"asset":{"generator":"Godot Engine v4.4.1.stable.official@49a5bc7b616bd04689a2c89e89bda41f50241464","version":"2.0"},"bufferViews":[{"buffer":0,"byteLength":864,"byteOffset":0,"byteStride":12,"target":34962},{"buffer":0,"byteLength":1152,"byteOffset":864,"byteStride":16,"target":34962},{"buffer":0,"byteLength":864,"byteOffset":2016,"byteStride":12,"target":34962},{"buffer":0,"byteLength":576,"byteOffset":2880,"byteStride":8,"target":34962},{"buffer":0,"byteLength":576,"byteOffset":3456,"target":34963},{"buffer":0,"byteLength":2592,"byteOffset":4032,"byteStride":12,"target":34962},{"buffer":0,"byteLength":432,"byteOffset":6624,"target":34963},{"buffer":0,"byteLength":588,"byteOffset":7056,"byteStride":12,"target":34962},{"buffer":0,"byteLength":784,"byteOffset":7644,"byteStride":16,"target":34962},{"buffer":0,"byteLength":588,"byteOffset":8428,"byteStride":12,"target":34962},{"buffer":0,"byteLength":392,"byteOffset":9016,"byteStride":8,"target":34962},{"buffer":0,"byteLength":432,"byteOffset":9408,"target":34963},{"buffer":0,"byteLength":4,"byteOffset":9840},{"buffer":0,"byteLength":12,"byteOffset":9844},{"buffer":0,"byteLength":4,"byteOffset":9856},{"buffer":0,"byteLength":16,"byteOffset":9860},{"buffer":0,"byteLength":4,"byteOffset":9876},{"buffer":0,"byteLength":12,"byteOffset":9880},{"buffer":0,"byteLength":8,"byteOffset":9892},{"buffer":0,"byteLength":32,"byteOffset":9900},{"buffer":0,"byteLength":12,"byteOffset":9932},{"buffer":0,"byteLength":36,"byteOffset":9944},{"buffer":0,"byteLength":8,"byteOffset":9980},{"buffer":0,"byteLength":32,"byteOffset":9988},{"buffer":0,"byteLength":12,"byteOffset":10020},{"buffer":0,"byteLength":36,"byteOffset":10032}],"buffers":[{"byteLength":10068,"uri":"token_3d0.bin"}],"extensions":{"OMI_physics_shape":{"shapes":[{"trimesh":{"mesh":1},"type":"trimesh"}]}},"extensionsUsed":["GODOT_single_root","OMI_physics_body","OMI_physics_shape"],"materials":[{},{}],"meshes":[{"extras":{"targetNames":[]},"primitives":[{"attributes":{"NORMAL":2,"POSITION":0,"TANGENT":1,"TEXCOORD_0":3},"indices":4,"material":0,"mode":4}]},{"extras":{"targetNames":[]},"primitives":[{"attributes":{"POSITION":5},"indices":6,"mode":4}]},{"extras":{"targetNames":[]},"primitives":[{"attributes":{"NORMAL":9,"POSITION":7,"TANGENT":8,"TEXCOORD_0":10},"indices":11,"material":1,"mode":4}]}],"nodes":[{"children":[1,4,5],"name":"Token3D_1","scale":[0.400000005960464,0.0500000007450581,0.400000005960464]},{"children":[2],"mesh":0,"name":"TokenMesh","translation":[0.0,0.104120999574661,0.0]},{"children":[3],"extensions":{"OMI_physics_body":{"motion":{"type":"static"}}},"name":"StaticBody3D"},{"extensions":{"OMI_physics_body":{"collider":{"shape":0}}},"name":"CollisionShape3D"},{"mesh":2,"name":"Outerglow","translation":[0.0,1.03061997890472,0.0]},{"name":"AnimationPlayer"}],"scene":0,"scenes":[{"nodes":[0]}]}